<?xml version="1.0" encoding="utf-8"?>
<!-- Generator: Adobe Illustrator 21.0.0, SVG Export Plug-In . SVG Version: 6.00 Build 0)  -->
<svg version="1.1" id="圖層_1" xmlns="http://www.w3.org/2000/svg" xmlns:xlink="http://www.w3.org/1999/xlink" x="0px" y="0px"
	 viewBox="0 0 120.1 68.6" style="enable-background:new 0 0 120.1 68.6;" xml:space="preserve">
<style type="text/css">
	.st0{fill:#86BFCF;}
</style>
<title>工作區域 1</title>
<path class="st0" d="M16.5,45.7v-26h8.8c2.1-0.1,4.2,0.4,6,1.5c1.4,1,2.1,2.6,2,4.3c0,3.1-2.1,5.3-6.2,6.6c4.9,1.2,7.3,3.6,7.3,7.2
	c0.1,1.8-0.7,3.6-2.1,4.8c-1.8,1.2-4,1.8-6.1,1.7L16.5,45.7z M21.6,30.6h1.3c1.3,0.1,2.6-0.3,3.6-1.1c0.9-0.8,1.4-1.9,1.3-3.1
	c0.1-0.9-0.3-1.9-1.1-2.4c-1.3-0.5-2.7-0.8-4.1-0.6h-1.1V30.6z M21.6,42.1h1.2c1.6,0.1,3.2-0.1,4.7-0.7c0.9-0.6,1.4-1.6,1.3-2.7
	c0-1.3-0.7-2.6-1.8-3.3c-1.2-0.9-2.8-1.4-4.3-1.4h-1.1V42.1z"/>
<path class="st0" d="M62.2,45.7v-26H71c2.1-0.1,4.2,0.4,6,1.5c1.4,1,2.1,2.6,2,4.3c0,3.1-2.1,5.3-6.2,6.6c4.9,1.2,7.3,3.6,7.3,7.2
	c0.1,1.8-0.6,3.6-2.1,4.8c-1.8,1.2-4,1.8-6.1,1.7H62.2z M67.3,30.6h1.3c1.3,0.1,2.6-0.3,3.6-1.1c0.9-0.8,1.4-1.9,1.3-3.1
	c0.1-0.9-0.3-1.9-1.1-2.4c-1.3-0.5-2.7-0.8-4.1-0.6h-1.1V30.6z M67.3,42.1h1.2c1.6,0.1,3.2-0.1,4.7-0.7c0.9-0.6,1.4-1.6,1.3-2.7
	c0-1.3-0.6-2.6-1.7-3.3c-1.3-0.9-2.8-1.4-4.4-1.4h-1V42.1z"/>
<path class="st0" d="M54.8,28.8c-0.4-0.4-0.9-0.8-1.4-1.1l-2.2-4.5L50,26.4c-1.7-0.3-3.3-0.3-5,0l-1.2-3.2l-2.2,4.5
	c-0.5,0.3-1,0.7-1.4,1.1c-1.9,2-2.8,4.7-2.7,7.4c-0.1,2.7,0.8,5.4,2.7,7.4c1.9,1.9,4.5,2.9,7.2,2.7c2.7,0.2,5.4-0.8,7.4-2.7
	c1.9-2,2.9-4.7,2.7-7.4C57.6,33.5,56.6,30.8,54.8,28.8z M47.9,29.5l0-0.1c0.4-0.2,0.9-0.5,1.2-0.2c0.1,0.1,0.2,0.3,0.2,0.5
	c0.1,0.6,0.1,1.2-0.1,1.7c-0.1,0.3-0.3,0.5-0.6,0.7c-0.3,0.2-0.6,0.1-0.9-0.1c-0.1-0.1-0.1-0.3-0.1-0.5
	C47.7,30.7,47.7,30.1,47.9,29.5L47.9,29.5z M42.2,29.8l0-0.1c0.4-0.2,0.9-0.5,1.2-0.2c0.1,0.1,0.2,0.3,0.2,0.4
	c0.1,0.6,0.1,1.1-0.1,1.6c-0.1,0.3-0.3,0.5-0.6,0.7c-0.3,0.2-0.6,0.1-0.9-0.1C42,31.9,42,31.7,42,31.6C42,31,42.1,30.4,42.2,29.8
	L42.2,29.8z M46.4,44c-1.5,0.1-2.9-0.4-4-1.3c-1-1-1.5-2.3-1.4-3.7c-0.1-1.4,0.5-2.7,1.5-3.7c1.1-0.9,2.5-1.4,4-1.3
	c1.5-0.1,2.9,0.4,4,1.3c1,0.9,1.6,2.3,1.5,3.7C51.9,42.3,50.1,44,46.4,44z"/>
<path class="st0" d="M93.1,46.2c-2.7,0.1-5.3-0.9-7.2-2.7c-1.8-2-2.8-4.6-2.7-7.4c-0.2-2.7,0.8-5.4,2.7-7.4c1.9-1.9,4.6-2.9,7.3-2.7
	c2.7-0.1,5.3,0.8,7.3,2.7c1.9,2,2.8,4.6,2.7,7.3c0.2,2.7-0.8,5.4-2.7,7.4C98.5,45.4,95.8,46.4,93.1,46.2z M93.2,43
	c3,0,4.5-2.3,4.5-6.9c0.1-1.7-0.3-3.5-1.2-5c-1.1-1.8-3.4-2.4-5.2-1.3c-0.5,0.3-0.9,0.7-1.3,1.3c-0.9,1.5-1.3,3.3-1.2,5
	c-0.1,1.7,0.3,3.5,1.2,5C90.6,42.2,91.9,43,93.2,43z"/>
</svg>
