<svg id="圖層_1" data-name="圖層 1" xmlns="http://www.w3.org/2000/svg" viewBox="0 0 120.09 68.57"><defs><style>.cls-1{fill:#fff;}</style></defs><title>工作區域 1</title><path class="cls-1" d="M16.52,45.74v-26h8.84a10.14,10.14,0,0,1,6,1.48,5,5,0,0,1,2,4.31q0,4.69-6.24,6.64,7.29,1.78,7.29,7.15a5.69,5.69,0,0,1-2.14,4.77,9.8,9.8,0,0,1-6.13,1.66Zm5.1-15.19H22.9a5.48,5.48,0,0,0,3.63-1.12,3.78,3.78,0,0,0,1.34-3.06,2.59,2.59,0,0,0-1.08-2.43,8.87,8.87,0,0,0-4.09-.64H21.62Zm0,11.5h1.16a10.5,10.5,0,0,0,4.7-.73,2.79,2.79,0,0,0,1.29-2.66A4,4,0,0,0,27,35.36,7,7,0,0,0,22.68,34H21.62Z"/><path class="cls-1" d="M62.19,45.74v-26H71a10.14,10.14,0,0,1,6,1.48,5,5,0,0,1,2,4.31q0,4.69-6.24,6.64,7.29,1.78,7.29,7.15A5.69,5.69,0,0,1,78,44.08a9.8,9.8,0,0,1-6.13,1.66Zm5.1-15.19h1.28a5.48,5.48,0,0,0,3.63-1.12,3.78,3.78,0,0,0,1.34-3.06,2.59,2.59,0,0,0-1.08-2.43,8.87,8.87,0,0,0-4.09-.64H67.29Zm0,11.5h1.16a10.5,10.5,0,0,0,4.7-.73,2.79,2.79,0,0,0,1.29-2.66,4,4,0,0,0-1.73-3.3A7,7,0,0,0,68.34,34H67.29Z"/><path class="cls-1" d="M54.77,28.84a8.54,8.54,0,0,0-1.38-1.12l-2.16-4.51L50,26.37a13.37,13.37,0,0,0-5,0l-1.24-3.16-2.15,4.51a8.56,8.56,0,0,0-1.38,1.12,10,10,0,0,0-2.68,7.38,10.09,10.09,0,0,0,2.66,7.36,9.56,9.56,0,0,0,7.18,2.73,10,10,0,0,0,7.42-2.69,10,10,0,0,0,2.69-7.44A10,10,0,0,0,54.77,28.84Zm-6.9.64.05-.11c.36-.24.87-.48,1.2-.22a.77.77,0,0,1,.24.45,2.79,2.79,0,0,1-.14,1.7,1.31,1.31,0,0,1-.57.7.72.72,0,0,1-.87-.13.83.83,0,0,1-.12-.5A8.06,8.06,0,0,1,47.87,29.49Zm-5.66.27.05-.11c.36-.23.87-.47,1.2-.21a.74.74,0,0,1,.24.43,2.64,2.64,0,0,1-.14,1.65,1.28,1.28,0,0,1-.57.68.73.73,0,0,1-.87-.13.79.79,0,0,1-.12-.48A7.6,7.6,0,0,1,42.21,29.76ZM46.38,44a5.64,5.64,0,0,1-4-1.34A4.71,4.71,0,0,1,40.94,39a4.68,4.68,0,0,1,1.47-3.65,5.74,5.74,0,0,1,4-1.33,5.78,5.78,0,0,1,4,1.33A4.65,4.65,0,0,1,51.92,39Q51.92,44,46.38,44Z"/><path class="cls-1" d="M93.1,46.2a9.56,9.56,0,0,1-7.18-2.73,10.09,10.09,0,0,1-2.66-7.36,10,10,0,0,1,2.68-7.38A9.79,9.79,0,0,1,93.22,26a9.81,9.81,0,0,1,7.3,2.71,10,10,0,0,1,2.68,7.35,10,10,0,0,1-2.69,7.44A10,10,0,0,1,93.1,46.2Zm.09-3.25q4.48,0,4.48-6.87a9.06,9.06,0,0,0-1.19-5,3.81,3.81,0,0,0-6.5,0,9.13,9.13,0,0,0-1.19,5,9.2,9.2,0,0,0,1.18,5A3.64,3.64,0,0,0,93.19,42.95Z"/></svg>